<svg width="23" height="23" viewBox="0 0 23 23" fill="none" xmlns="http://www.w3.org/2000/svg">
<path d="M11.1103 20.4091C5.91437 20.4091 1.68408 16.1789 1.68408 10.983C1.68408 5.78705 5.91437 1.55676 11.1103 1.55676C16.3062 1.55676 20.5365 5.78705 20.5365 10.983C20.5365 16.1789 16.3062 20.4091 11.1103 20.4091ZM11.1103 2.93621C6.66847 2.93621 3.06352 6.55034 3.06352 10.983C3.06352 15.4156 6.66847 19.0297 11.1103 19.0297C15.5521 19.0297 19.157 15.4156 19.157 10.983C19.157 6.55034 15.5521 2.93621 11.1103 2.93621Z" fill="#292D32" fill-opacity="0.69"/>
<path d="M20.7664 21.3292C20.5917 21.3292 20.417 21.2648 20.279 21.1268L18.4398 19.2876C18.1731 19.0209 18.1731 18.5795 18.4398 18.3128C18.7065 18.0461 19.1479 18.0461 19.4146 18.3128L21.2538 20.152C21.5205 20.4187 21.5205 20.8602 21.2538 21.1268C21.1159 21.2648 20.9412 21.3292 20.7664 21.3292Z" fill="#292D32" fill-opacity="0.69"/>
</svg>
