<svg width="16" height="17" viewBox="0 0 16 17" fill="none" xmlns="http://www.w3.org/2000/svg">
<path d="M9.63239 15.2948H5.78978C2.31222 15.2948 0.826416 13.809 0.826416 10.3314V6.48883C0.826416 3.01127 2.31222 1.52547 5.78978 1.52547H7.07065C7.33323 1.52547 7.55098 1.74321 7.55098 2.00579C7.55098 2.26837 7.33323 2.48612 7.07065 2.48612H5.78978C2.83738 2.48612 1.78707 3.53643 1.78707 6.48883V10.3314C1.78707 13.2838 2.83738 14.3342 5.78978 14.3342H9.63239C12.5848 14.3342 13.6351 13.2838 13.6351 10.3314V9.05057C13.6351 8.78799 13.8528 8.57024 14.1154 8.57024C14.378 8.57024 14.5958 8.78799 14.5958 9.05057V10.3314C14.5958 13.809 13.1099 15.2948 9.63239 15.2948Z" fill="white"/>
<path d="M5.46956 12.0542C5.0789 12.0542 4.72025 11.9133 4.45767 11.6571C4.14386 11.3433 4.00937 10.8886 4.07982 10.4083L4.3552 8.48059C4.40644 8.10914 4.6498 7.62882 4.91238 7.36624L9.959 2.31962C11.2335 1.04515 12.5271 1.04515 13.8016 2.31962C14.4997 3.01769 14.8135 3.72857 14.7495 4.43946C14.6918 5.01585 14.3844 5.57943 13.8016 6.15582L8.75499 11.2024C8.49241 11.465 8.01208 11.7084 7.64063 11.7596L5.71293 12.035C5.62967 12.0542 5.54641 12.0542 5.46956 12.0542ZM10.6379 2.99848L5.59124 8.0451C5.46956 8.16678 5.32866 8.44857 5.30305 8.61509L5.02766 10.5428C5.00204 10.7285 5.04047 10.8822 5.13653 10.9783C5.2326 11.0744 5.3863 11.1128 5.57203 11.0872L7.49974 10.8118C7.66625 10.7862 7.95445 10.6453 8.06972 10.5236L13.1163 5.47696C13.5326 5.06068 13.7504 4.68922 13.7824 4.34339C13.8208 3.92711 13.6031 3.48521 13.1163 2.99207C12.0917 1.96738 11.3872 2.25557 10.6379 2.99848Z" fill="white"/>
<path d="M12.7384 7.02039C12.6936 7.02039 12.6487 7.01399 12.6103 7.00118C10.926 6.52726 9.58745 5.18875 9.11353 3.50441C9.04308 3.24824 9.19038 2.98566 9.44656 2.90881C9.70273 2.83836 9.96531 2.98566 10.0358 3.24183C10.42 4.60596 11.5024 5.68829 12.8665 6.07255C13.1227 6.143 13.27 6.41198 13.1995 6.66815C13.1419 6.8859 12.9497 7.02039 12.7384 7.02039Z" fill="white"/>
</svg>
